<svg width="107" height="104" viewBox="0 0 107 104" fill="none" xmlns="http://www.w3.org/2000/svg">
<path fill-rule="evenodd" clip-rule="evenodd" d="M89.288 81.541C83.9061 73.2144 75.6709 67.1432 66.2266 64.2245C71.16 60.5035 74.3904 54.7545 74.3904 48.2347C74.3904 37.04 65.0242 27.93 53.5 27.93C41.9823 27.93 32.6096 37.04 32.6096 48.2347C32.6096 54.7545 35.84 60.5098 40.7734 64.2245C31.3291 67.1432 23.0939 73.2144 17.712 81.541C10.7377 73.5682 6.49982 63.2642 6.49982 52.0063C6.49982 26.8118 27.5852 6.31758 53.5 6.31758C79.4148 6.31758 100.5 26.8118 100.5 52.0063C100.5 63.2642 96.2623 73.5682 89.288 81.541ZM39.1094 48.2347C39.1094 40.521 45.5637 34.2476 53.5 34.2476C61.4363 34.2476 67.8906 40.521 67.8906 48.2347C67.8906 55.9485 61.4363 62.2218 53.5 62.2218C45.5637 62.2218 39.1094 55.9485 39.1094 48.2347ZM53.5 97.6824C41.5143 97.6824 30.6011 93.2664 22.2944 86.0644C22.3724 85.9633 22.5024 85.9128 22.5739 85.7927C28.9827 75.1539 40.8254 68.5394 53.5 68.5394C66.1681 68.5394 78.0173 75.1539 84.4196 85.7864C84.4911 85.9065 84.6016 85.976 84.6861 86.0833C76.3794 93.2728 65.4727 97.6824 53.5 97.6824ZM53.5 0C24.0038 0 0 23.3308 0 52.0063C0 80.6755 24.0038 104 53.5 104C82.9962 104 107 80.6755 107 52.0063C107 23.3308 82.9962 0 53.5 0Z" fill="#F7D720"/>
<ellipse cx="90.3786" cy="89" rx="12.466" ry="12" fill="#F14F5E"/>
<path fill-rule="evenodd" clip-rule="evenodd" d="M85.1365 93.8575L84.7716 95.2309L86.1131 94.6303L85.1365 93.8575ZM85.2283 93.5118L86.4508 94.4791L89.4036 93.157L89.3554 93.1338C88.0529 92.5064 86.9166 91.6022 86.0315 90.4888L85.2283 93.5118Z" fill="white"/>
<path d="M91.2556 84.3711L94.6278 87.0393L89.7237 92.7824V92.7824C88.3467 92.2383 87.1726 91.3093 86.3515 90.1142V90.1142L91.2556 84.3711Z" fill="white"/>
<rect width="4.3001" height="1.94291" transform="matrix(0.7842 0.620508 -0.649374 0.760469 92.5088 82.9033)" fill="white"/>
<rect width="4.3001" height="0.328348" transform="matrix(0.7842 0.620508 -0.649374 0.760469 92.1082 83.3721)" fill="white"/>
<path d="M93.6007 81.6242V81.6242C95.0298 82.0814 96.2303 83.0313 96.9729 84.2925V84.2925L95.6936 85.7907L92.3214 83.1224L93.6007 81.6242Z" fill="white"/>
<path d="M90.3786 102.5C98.0375 102.5 104.345 96.5092 104.345 89C104.345 81.4908 98.0375 75.5 90.3786 75.5C82.7198 75.5 76.4126 81.4908 76.4126 89C76.4126 96.5092 82.7198 102.5 90.3786 102.5Z" stroke="white" stroke-width="3"/>
</svg>
