<svg xmlns="http://www.w3.org/2000/svg" viewBox="0 0 256 256"><title>icons</title><path d="M115.59,61H241.3a11.59,11.59,0,0,0,0-23.17H115.59a11.59,11.59,0,0,0,0,23.17Z" fill="#242c6a"/><path d="M60.82,22.83,35,51,25.35,40.46a11.49,11.49,0,0,0-16.43-.52A11.44,11.44,0,0,0,8.4,56.26L26.39,76a11.28,11.28,0,0,0,16.69,0L77.51,38.62A11.44,11.44,0,0,0,77,22.3,11.19,11.19,0,0,0,60.82,22.83Z" fill="#242c6a"/><path d="M241.56,119.43h-126a11.59,11.59,0,0,0,0,23.17H241.3A11.63,11.63,0,0,0,252.77,131,11.42,11.42,0,0,0,241.56,119.43Z" fill="#242c6a"/><path d="M60.82,104.43,35,132.6l-9.65-10.53a11.5,11.5,0,0,0-16.43-.53,11.44,11.44,0,0,0-.52,16.32l18,19.75a11.3,11.3,0,0,0,16.69,0l34.43-37.38A11.44,11.44,0,0,0,77,103.91,11.19,11.19,0,0,0,60.82,104.43Z" fill="#242c6a"/><path d="M241.56,201h-126a11.59,11.59,0,0,0,0,23.17H241.3a11.64,11.64,0,0,0,11.47-11.58A11.42,11.42,0,0,0,241.56,201Z" fill="#242c6a"/><path d="M60.82,186,35,214.21l-9.65-10.53a11.5,11.5,0,0,0-16.43-.53,11.46,11.46,0,0,0-.52,16.32l18,19.74a11.28,11.28,0,0,0,16.69,0L77.77,202.1a11.44,11.44,0,0,0-.52-16.32A11.72,11.72,0,0,0,60.82,186Z" fill="#242c6a"/></svg>