<svg xmlns="http://www.w3.org/2000/svg" viewBox="0 0 256 256"><title>icons</title><path d="M183.11,177.61c0-31.4-18.05-40.67-45.35-54.71l-15-7.75c-27.09-13.91-34.17-18.27-34.17-36,0-22.79,19.24-30.91,37.23-30.91,8.58,0,36.58,2.22,36.58,30.91a10,10,0,1,0,20.05,0c0-26.16-16.35-44.92-41.81-50.17V13.54a10,10,0,1,0-20,0V27.77c-31.27,2.06-52,22.05-52,51.39,0,31.43,18,40.69,45.34,54.72l15,7.75c27.1,13.93,34.18,18.29,34.18,36,0,28.37-28.51,30.58-37.24,30.58S88.59,206,88.59,177.61a10,10,0,1,0-20,0c0,29.15,20.78,49,52.06,51v14.58a10,10,0,1,0,20.05,0V227.48C166.51,222.33,183.11,203.68,183.11,177.61Z" fill="#242c6a"/></svg>