<svg xmlns="http://www.w3.org/2000/svg" viewBox="0 0 256 256"><title>icons</title><path d="M208.79,174.24a2.23,2.23,0,0,1-.67-1.56V103.17c0-39.41-31.31-71.9-71.18-75.56V11a7.51,7.51,0,0,0-15,0V27.61c-39.87,3.66-71.18,36.15-71.18,75.56v69.51a2.23,2.23,0,0,1-.67,1.56L31.27,192.39a16.29,16.29,0,0,0-5.07,11.8v5.55c0,9.23,7.77,16.73,17.34,16.73H96.17c2.67,15.4,16.56,27.17,33.26,27.17s30.6-11.77,33.26-27.17h52.63c9.58,0,17.35-7.5,17.35-16.73v-5.55a16.33,16.33,0,0,0-5.07-11.8Zm-79.36,64.91a18.64,18.64,0,0,1-17.79-12.68h35.59A18.64,18.64,0,0,1,129.43,239.15Zm88.22-29.41a2.3,2.3,0,0,1-2.33,2.24H43.54a2.29,2.29,0,0,1-2.32-2.24v-5.55a2.07,2.07,0,0,1,.67-1.55L60.7,184.49a16.3,16.3,0,0,0,5.07-11.81V103.17c0-33.87,28.56-61.43,63.66-61.43S193.1,69.3,193.1,103.17v69.51a16.3,16.3,0,0,0,5.07,11.81L217,202.64a2,2,0,0,1,.68,1.55Z" fill="#242c6a"/></svg>